<?xml version="1.0" encoding="UTF-8"?>
<svg id="Layer_2" data-name="Layer 2" xmlns="http://www.w3.org/2000/svg" viewBox="0 0 300 300">
  <defs>
    <style>
      .cls-1, .cls-2 {
        fill: none;
        stroke: #633202;
        stroke-miterlimit: 10;
        stroke-width: 5px;
      }

      .cls-3 {
        fill: #633202;
      }

      .cls-2 {
        stroke-linecap: round;
      }
    </style>
  </defs>
  <path class="cls-1" d="M232.35,188.41c24.5-3.09,42.62-20.35,40.48-38.55-2.14-18.2-23.73-30.45-48.23-27.36-.67.09-1.34.18-2.01.29-4.9.78-8.98-3.56-7.86-8.4.56-2.4,1.02-4.85,1.38-7.36,4.91-34.14-10.8-64.17-35.08-67.07-24.29-2.91-47.95,22.41-52.86,56.55-.71,4.94.16-4.12.28.57"/>
  <g>
    <path class="cls-3" d="M171.66,98.41l-105.15,105.15c-2.24,2.24-2.59,5.72-.91,8.4,1.79,2.85,3.77,5.62,5.94,8.29,2.5,3.07,7.14,3.25,9.94.45l107.31-107.31c2.8-2.8,2.62-7.44-.45-9.94-2.66-2.17-5.43-4.15-8.29-5.94-2.68-1.68-6.16-1.33-8.4.91Z"/>
    <path class="cls-3" d="M136.42,96.47c4.34-4.34,1.09-11.83-5.04-11.49-19.69,1.08-39.07,9.14-54.11,24.18h0c-15.04,15.04-23.1,34.42-24.18,54.11-.34,6.12,7.15,9.37,11.49,5.04l71.84-71.84Z"/>
    <path class="cls-3" d="M222.88,140.2c-1.8-2.84-3.79-5.6-5.98-8.25-2.51-3.05-7.13-3.22-9.92-.43l-107.37,107.37c-2.79,2.79-2.62,7.41.43,9.92,2.65,2.18,5.41,4.17,8.25,5.98,2.68,1.7,6.18,1.35,8.42-.9l105.27-105.27c2.25-2.25,2.6-5.74.9-8.42Z"/>
    <path class="cls-3" d="M151.72,256.07c-4.32,4.32-1.1,11.79,5.01,11.49,19.9-.95,39.52-9.03,54.72-24.22h0c15.2-15.2,23.27-34.82,24.22-54.72.29-6.11-7.17-9.33-11.49-5.01l-72.45,72.45Z"/>
  </g>
  <path class="cls-2" d="M94.91,122.65h0c-22.36-13.62-47.35-22.38-73.33-25.69l-1.16-.15"/>
  <path class="cls-2" d="M95.41,119.77c-.02.17-.51-3.07-1.2-7.88-3.47-24.18-15.88-46.19-34.81-61.63-.26-.21-.43-.35-.48-.38"/>
</svg>