<?xml version="1.0" encoding="UTF-8"?>
<svg id="Layer_2" data-name="Layer 2" xmlns="http://www.w3.org/2000/svg" viewBox="0 0 300 300">
  <defs>
    <style>
      .cls-1 {
        fill: #fef7dd;
      }

      .cls-1, .cls-2 {
        stroke: #633202;
        stroke-linecap: round;
        stroke-miterlimit: 10;
        stroke-width: 5px;
      }

      .cls-3 {
        fill: #633202;
      }

      .cls-2 {
        fill: none;
      }
    </style>
  </defs>
  <polyline class="cls-2" points="272.5 115.5 243.5 115.5 205.87 153.11"/>
  <path class="cls-3" d="M193.17,231h-110.62c-6.4,0-9.4,7.99-4.54,12.14,2.45,2.09,5.01,4.05,7.67,5.88,1.72,1.18,3.76,1.83,5.86,1.83h92.63c2.09,0,4.13-.64,5.85-1.82,2.66-1.83,5.23-3.79,7.68-5.88,4.87-4.15,1.87-12.14-4.53-12.14Z"/>
  <path class="cls-3" d="M226.22,199.53c.63-2.1,1.19-4.23,1.67-6.39.97-4.33-2.31-8.46-6.75-8.46H54.58c-4.44,0-7.72,4.12-6.75,8.46.48,2.16,1.04,4.29,1.67,6.39.89,2.95,3.57,5,6.65,5h163.42c3.08,0,5.76-2.05,6.65-5Z"/>
  <path class="cls-3" d="M227.13,149.53c-.58-2.23-1.24-4.42-1.98-6.58-.95-2.77-3.59-4.59-6.52-4.59H57.12c-2.92,0-5.56,1.82-6.51,4.59-.74,2.15-1.41,4.35-1.99,6.57-1.15,4.39,2.15,8.69,6.69,8.69h165.13c4.53,0,7.84-4.29,6.7-8.68Z"/>
  <circle class="cls-1" cx="82.99" cy="244.98" r="27.5"/>
  <circle class="cls-1" cx="193.98" cy="243.97" r="27.5"/>
</svg>