<?xml version="1.0" encoding="UTF-8"?>
<svg id="Layer_2" data-name="Layer 2" xmlns="http://www.w3.org/2000/svg" viewBox="0 0 1014.48 843.66">
  <defs>
    <style>
      .cls-1 {
        fill: #633203;
      }

      .cls-2 {
        fill: #e9a736;
      }

      .cls-3 {
        fill: none;
        stroke: #e9a736;
        stroke-linecap: round;
        stroke-miterlimit: 10;
        stroke-width: 6px;
      }
    </style>
  </defs>
  <g>
    <path class="cls-1" d="M284.89,51.93c-6.85-.81-13.46,5.45-12.75,12.31.24,2.35.73,5.56,1.91,8.1,3.88,8.35,13.31,12.71,21.35,12.66,6.27-.03,9.43-2.79,14.58-5.96,34.1-20.99,49.22-7.37,52.36,1.68,7.66,22.09-44.12,59.94-68.26,77.16-18.61,13.28-24.94,17.51-71.93,48.96-73.3,49.05-94.3,70.51-113.94,97.83-6.89,9.58-13.56,22.83-13.56,22.83,0,0,43.49-30.16,94.75-39.09,11.29-1.97,20.55-2.49,25.84-2.65,2.67-10.33,3.29-12.92,12.17-24.47,18.11-19.44,38.91-40.29,51.22-48.49,10.04.25,21.89-.18,35.04-2.06,11.23-1.61,29.74-6.48,29.74-6.48-11.57,15.45-17.41,27.18-21.7,34.06-7.57,16.1-9.28,29.6-5.08,37.33.62,1.14,4.34,6.87,11.76,8.42,2.47.51,8.69.72,10.55.63,4.86-.22,8.86,0,16.55-.93,5.36-.65,6.59-1.41,7.36-2.06,3.85-3.21,3.56-9.33,3.53-10.9-.1-7.01,8.6-33.52,22.03-59.66,20.93-40.74,46.07-68.45,52.79-75.98,5.76-6.46,11.1-12.54,17.23-18.66,2.37-2.37,6.68-7.34,2.21-10.71-2.81-2.12-7.62-2.54-13.69-2.43-12.22.22-12.22-.92-22.55,2.24-5.37,1.65-14.62,5.69-32.1,27.39-9.05,11.23-21.09,28.17-32.1,51.24-11.13,1.28-23.14,2.23-35.93,2.65-10.34.34-16.64,1.34-25.91,1.03,15.3-12.33,26.28-22.38,40.61-36.51,1.69-1.67,5.33-4.65,6.91-6.42,9.96-11.23,41.37-47.92,40.83-64.69-.11-3.36-1.18-6.18-1.18-6.18-2.41-6.35-8.95-12.48-25.91-17.08-24.14-6.54-36.15-.98-71.26-4.71-1.2-.13-2.35-.26-3.45-.39Z"/>
    <path class="cls-1" d="M512.12,220.31c-1.69-14.05-9.17-26.31-23.89-32.98-15.61-7.07-35.89-6.53-43.58-4.71-21.55,5.1-33.98,19.54-39.46,25.91-3.91,4.54-12.58,14.84-17.08,30.92-1.65,5.91-10.93,39.07,7.66,56.54,11.21,10.53,26.86,10.01,35.63,9.72,31.33-1.05,51.26-19.85,56.83-25.91,9.81-10.68,26.75-35.77,23.89-59.48ZM473.88,240.37c-4.07,13.78-23.74,24.16-28.82,25.84-4.97,1.65-14.04,4.65-19.33,0-2.84-2.5-3.42-6.17-3.73-8.27-1.69-11.61,5.78-25.46,17.29-32.74,9.37-5.92,25.7-10.19,32.55-2.41,4.93,5.6,2.83,14.89,2.03,17.57Z"/>
    <path class="cls-1" d="M522.98,195.28c-6.64,5.08-8.66,15.27-6.18,23.29,1.67,5.42,5.11,8.96,7.36,10.87,2.38.4,8.15,1.69,10.6,6.26,2.25,4.18.55,8.93-1.33,13.77-7.43,19.14-11.15,28.71-15.46,33.13-11.54,11.82-21.78,9.47-26.24,20.76-2.21,5.58-1.72,11.27-1.43,14.62.49,5.7,1.13,13.25,6.77,18.65,9.32,8.94,24.43,4.49,25.62,4.12,4.65-1.44,7.79-3.78,11.75-6.74,3.1-2.31,8.63-6.44,12.69-12.99,4.2-6.8,4.88-13.07,5.74-22.09,1.51-15.73-1.55-17.13,0-27.39.77-5.08,2.91-19.29,14.13-27.92,11.41-8.77,30.31-10.31,36.66-2.12,2.83,3.64,2.51,8.35,2.21,12.81-.61,9.09-4.25,14.85-10.16,25.18-14.23,24.9-14.67,29.21-14.72,31.8-.27,12.4,7.42,20.9,8.25,21.79,1.08,1.16,10.01,10.49,23.56,9.62,2.31-.15,13.04-.84,19.44-9.62,1.12-1.53,6.1-8.38,3.83-16.79-.7-2.59-3.6-6.96-7.66-10.49-1.63-1.41-3.2-2.44-3.83-4.53-.91-3.07,2-8.68,2.43-9.72,3.83-9.28,4.27-9.79,9.64-25.91.77-2.32,5.62-17.51,0-32.39-6.94-18.39-25.1-25.3-26.8-25.91-24.3-8.83-45.34,7.58-46.53,8.54-1.51-11.22-8.3-20.49-17.37-23.56-7.99-2.7-16.36-.14-16.79,0-1.92.61-4.01,1.28-6.18,2.94Z"/>
    <path class="cls-1" d="M783.96,212.95c-.48-.59-6.07-7.31-15.02-7.36-11.1-.06-17.34,10.21-18.26,11.78-1.23,2.1-4.43,7.41-3.24,13.55,1.34,6.87,6.79,7.67,7.8,12.72,1.99,9.94-16.27,21.1-18.55,22.47-16.35,9.79-35.79,9.67-42.7,4.42-3.65-2.78-4.74-7.38-4.74-7.38,10.95-15.46,23.17-24.37,31.39-29.28,8.65-5.17,15.17-6.98,22.38-15.28,3.25-3.74,9.87-11.47,10.9-23.29.17-1.92,1.05-12.06-4.12-20.32-10-15.98-38.1-17.68-57.13-10.6-26.75,9.95-36.44,37.58-39.75,47.03-9.75,27.8-6.87,57.96,5.3,75.77,2,2.93,5.67,8.19,12.37,12.37,8.54,5.34,17.42,7.43,30.04,7.95,12.78.52,18.79-.87,27.09-2.94,18.21-4.56,29.4-16.39,35.63-22.97,5.11-5.4,20.05-21.15,23.85-44.76,1.18-7.35,2.54-16.67-3.24-23.85ZM681.85,235.7c4.15-21.72,14.43-31.02,19.44-34.67,4.56-3.33,12.21-6.59,14.58-4.27,2.28,2.23-1.04,8.77-3.53,12.66-2.95,4.59-6.39,7.93-23.19,20.76-2.99,2.28-5.5,4.18-7.29,5.52Z"/>
    <path class="cls-1" d="M800.01,172.61c-12.22-6.52-27.06,4.4-35.34-4.42-6.89-7.35-2.93-21.67,0-28.27,4.4-9.89,14.32-20.01,26.5-21.2,19.53-1.91,33.92,20.38,39.75,29.41,19.08,29.53,14.54,62.88,11.93,76.16,15.37-12.71,24.23-25.85,29.15-34.6,8.31-14.75,14.45-25.66,11.04-36.96-4.13-13.69-18.18-14.38-20.76-28.71-1.42-7.88,1.17-16.88,6.63-22.09,13.13-12.53,44.7-4.79,54.77,11.93,5.31,8.82,6.11,22.57-15.02,62.28-33.26,62.51-73.9,101.1-77.74,104.69-21.65,20.21-61.13,55.86-123.24,81.28-128.58,52.62-267.29,8.14-285.92,2.21-36-11.47-45.74-16.48-108.53-26.5-22.82-3.64-62.64-6-83.04,1.77-31.58,12.02-47.26,40.19-59.63,63.17-28.05,52.09-44.47,130.21-15.9,150.63,9.26,6.62,21.53,5.94,25.18,5.74,27.46-1.52,43.87-26.91,46.38-30.92-1.3-3.3-10.1-26.84,2.65-47.71,7.92-12.96,20.05-18.17,29.15-22.09,9.41-4.04,22.26-9.57,34.9-3.98,2.19.97,10.01,4.43,12.81,11.48,4.5,11.32-6.1,26.35-22.09,43.29-32.1,34.01-71.56,75.83-132.52,79.07-14.66.78-30.05,1.41-46.38-7.07-31.36-16.27-40.38-52.68-45.06-71.56-15.57-62.88,13.02-115.07,18.99-125.45,7.03-12.22,21.14-33.26,45.5-51.68,41.1-31.09,85.08-34.81,117.06-37.1,91.16-6.53,175.66,31.58,210.26,46.72,15.97,6.99,35.81,16.6,66.26,23.07,16.58,3.52,50.39,9.1,92.76,3.98,15.58-1.88,59.54-8.51,109.55-36.66,37.9-21.34,72.44-44.17,91.44-88.87,10.73-25.25,5.07-62.2-11.48-71.03Z"/>
    <path class="cls-1" d="M349.9,425.93c-21.93-8.71-41.57-3.73-46.38,6.18-2.34,4.82-2.03,12.57,0,18.55,1.18,3.47,2.55,7.51,6.18,8.83,5.07,1.85,9.85-6.12,12.37-4.86,2.85,1.43,1.1,13.28-3.98,26.06-4.89,12.33-12.87,32.45-32.69,46.38-7.35,5.17-13.95,7.82-14.13,13.25-.23,6.75,9.64,12.03,11.93,13.25,12.24,6.55,25.13,3.17,29.15,2.12,4.47-1.17,12.87-3.37,19.29-10.55,5.06-5.66,6.28-11.5,8.54-23.37,6.74-35.46,6.2-37.94,9.72-45.06,6.39-12.95,18.12-24.71,24.74-22.53,3.66,1.2,2.58,5.63,7.35,9.87,7.92,7.04,23.91,6.43,33.85-1.84,1-.84,6.34-5.4,8.67-13.51,2.24-7.79.96-16.28-2.73-22.35-9.33-15.33-34.24-15.51-48.9-11.93-10.87,2.66-18.65,8-22.97,11.48Z"/>
    <path class="cls-1" d="M500.24,430.16c-4.55-12.04-27.89-17.62-45.32-11.1-1.77.66-15.45,6-21.73,19.42-2.78,5.94-2.72,10.47-3.24,15.26-2.75,25.41-19.04,31.3-21.73,49.94-2.26,15.64,5.92,34.23,18.22,43.01,29.02,20.71,92.05-5.59,102.48-38.84,4.12-13.14,2.35-34.75,15.26-49.48,1.14-1.3,4.6-5.06,7.4-11.1,2.23-4.8,7.68-16.56,2.31-24.51-5.22-7.72-17.69-7.45-24.51-5.81-12.44,3.01-20.19,14.12-22.66,22.92-1.21,4.32-1.3,8.58-1.39,12.95-.17,8.42,1.06,14.54,1.42,16.64,1.57,9.18,2.09,32.45-11.09,44.4-10.78,9.77-30.95,12.2-39.81,3.7-14.4-13.81,1.74-55.84,18.69-59.71,3.06-.7,7.61-.49,13.69-3.64,2.79-1.45,8.8-4.56,11.5-11.29.23-.58,2.71-6.98.53-12.76Z"/>
    <path class="cls-1" d="M572.94,422.08c-6.34,3.07-9.56,8.39-13.44,14.82-2.58,4.27-4.11,6.87-4.01,10.36.18,6.36,5.51,8.58,8.78,13.98,5.47,9.03.42,20.94-9.67,44.75-5.83,13.73-9.56,18.48-13.82,18.68-3.78.19-4.97-3.34-9.36-3.68-8.78-.69-20.56,12.54-18,20.05,2.82,8.27,23.01,9.45,36.64,6.6,0,0,8.54-1.78,15.71-5.86,17.85-10.16,31.62-45.5,34.7-91.5.36-.51,6.28-8.7,15.34-8,.95.07,4.53.4,7.58,2.86,6.05,4.89,5.31,14.46,4.8,20.05-2.16,23.71-20.93,49.71-23.35,53.15-.93,1.32-3.29,4.6-3.37,9.06-.12,6.15,4.12,12.58,9.58,15.25,10.22,5.01,23.14-3.94,25.57-5.62,13.64-9.45,17.61-24.57,23.86-49.89,2.27-9.21,5.1-22.68,6.79-39.39,2.98-5.31,8.52-8.44,14.01-7.97,8.34.71,11.84,9.3,12.14,10.06,2.98,7.66-1.24,15.47-4.46,21.94-11.94,23.96-21.33,42.8-17.48,59.46.73,3.16,4.07,15.47,15.53,20.88,7.16,3.38,16.28,3.48,23.8-.44,9.1-4.75,16.13-15.55,13.31-21.84-2.3-5.15-9.63-3.81-14.37-10.87-1.36-2.03-2.93-5.36-2.88-11.95.12-16.21,9.84-27.86,15.15-41.85,4.94-13,9.96-38.3-1.32-47.11-11.14-8.7-35.15,1.02-48.47,11.62-5.67,4.51-9.56,9.31-12.15,13.08.44-3.6.51-9.43-2.93-14.52-7.57-11.2-26.7-10.66-38.19-7-10.13,3.22-16.66,9.6-20.11,13.66,1.9-5.52.56-8.59-.18-9.85-4-6.76-17.25-7.05-25.73-2.95Z"/>
    <path class="cls-1" d="M768.98,383.93c-.07,10.95-6.72,25.16-18.18,30.19-8.03,3.52-20.49,3.61-26.94-4.67-6.04-7.75-3.58-18.66-3.11-20.74.94-4.15,3.62-12.03,22.29-26.37,13.2-10.14,25.43-19.54,44.42-23.84,13.05-2.96,24.55-5.57,33.94,1.55,10.73,8.14,11.88,23.9,12.22,28.5.27,3.69.41,11.03-8.18,35.43-2.85,8.09-7.05,19.19-12.95,32.15,20.21-3.03,36.97-3.12,48.88-2.56,26,1.22,31.42,5.64,34.03,8.54,11.73,13.03,5.21,37.8,4.26,41.24-11.36,41.17-59.7,64.11-95.23,69.66-31.35,4.89-59.33-2.65-59.25-4.25.05-1.14,14.13.82,34.03-3.24,13.61-2.78,40.5-8.55,59.65-31.76,3.42-4.15,18.28-20.66,15.8-40.76-.38-3.12-1.67-13.56-9.13-18.76-8.07-5.61-18.79-1.91-28.18,1.33-10.47,3.61-17.47,8.94-18.9,10.05-14.2,11.03-28.82,29.41-24.66,37.29,1.85,3.49,6.04,2.41,7.9,6.47,3,6.55-4.6,16.57-5.75,18.07-10.86,14.3-34.06,23.06-43.25,13.74-5.21-5.28-4.31-14.76-3.88-19.24,1.52-16.07,11.15-27.17,15.61-32.47,0,0,29.21-34.73,47.78-76.91,14.43-32.76,8.73-42.16,6.96-44.58-3.02-4.13-9.07-7.73-15.59-6.97-6.52.76-12,5.65-14.03,11.15-1.66,4.47-.51,7.16-.54,11.76Z"/>
    <path class="cls-1" d="M879.22,529.37c-8.7-.82-14.56,6.29-15.46,7.38-3.9,4.73-7.88,13.93-3.38,20.77,4.56,6.92,14.34,6.13,15.19,6.05,7.22-.69,11.62-5.71,13.5-7.85,2.25-2.57,5.32-6.06,5.37-10.84.07-7.38-7.1-14.74-15.23-15.51Z"/>
  </g>
  <g>
    <path class="cls-2" d="M482.83,130.26l-.16-.17c-1.15-1.21-3.07-1.07-4.24,0-2.86,2.61-.2,6.93,1.75,9.25,3.14,3.74,7.92,5.72,12.78,5.52,5.37-.22,21.04-8.54,11.46-14.37-7.32-4.45-19.13,2.33-20.77,10.04-2.37,11.11,10.86,14.56,19.28,14.01,3.83-.25,3.86-6.25,0-6-3.6.24-8.56.15-11.59-2.2-5.35-4.15.95-9.45,5.25-10.49,7.8-1.87.54,2.29-2.52,2.81-2.28.39-4.48.18-6.56-.94-1.2-.65-3.79-4.34-4.84-3.39h-4.24l.16.17c2.66,2.81,6.9-1.44,4.24-4.24h0Z"/>
    <path class="cls-2" d="M531.56,136.58c-4.82-2.66-11.04-.55-14.46,3.53-1.59,1.9-2.33,4.22-1.89,6.68.54,3,3.14,5.16,3.67,8.04l.77-2.92c-.76.85-5.12-.29-6.44-.74-3.66-1.25-5.24,4.55-1.6,5.79,3.37,1.15,12.81,2.81,13.16-2.92.17-2.76-2.39-4.84-3.33-7.21-1.37-3.45,4.21-6.66,7.09-5.07,3.38,1.87,6.41-3.31,3.03-5.18h0Z"/>
    <path class="cls-2" d="M538.68,151.56c5.77-1.39,11.58-1.61,17.42-.55,3.78.68,5.39-5.1,1.6-5.79-6.93-1.25-13.76-1.1-20.61.55-3.75.91-2.16,6.69,1.6,5.79h0Z"/>
    <path class="cls-2" d="M549.72,134.94c-3.98,6.86-6.71,14.26-7.82,22.13-.56,3.98.65,9.88,6.04,7.02,3.41-1.81.38-6.99-3.03-5.18l-.75.4h3.03c1.08.56.83-2.93,1.07-4.1.4-2.01.92-4,1.54-5.95,1.26-3.98,3-7.67,5.1-11.27,1.94-3.35-3.24-6.37-5.18-3.03h0Z"/>
    <path class="cls-2" d="M556.78,157.84c-2.01.67-3.15,2.67-2.65,4.75s2.66,3.25,4.68,2.77c1.79-.42,3.2-2.08,3.19-3.95,0-.82-.24-1.72-.72-2.39-.65-.91-1.42-1.47-2.47-1.85-.7-.25-1.69-.06-2.31.3s-1.22,1.08-1.38,1.79c-.39,1.69.51,3.12,2.1,3.69l.11.04-.72-.3c.11.05.21.11.31.18l-.61-.47c.1.08.18.16.26.25l-.47-.61c.07.1.13.19.19.3l-.3-.72c.05.11.08.22.11.34l-.11-.8c.01.12.02.23,0,.35l.11-.8c-.01.08-.03.15-.05.22l.3-.72c-.05.1-.09.18-.16.28l.47-.61c-.07.08-.14.15-.23.22l.61-.47c-.09.06-.18.11-.28.15l.72-.3c-.1.04-.2.06-.31.07l.8-.11c-.07,0-.14,0-.21,0l.8.11c-.11-.02-.2-.04-.3-.09l.72.3c-.06-.03-.12-.07-.17-.11l.61.47s-.09-.09-.12-.14l.47.61c-.04-.05-.07-.11-.09-.17l.3.72c-.03-.09-.05-.18-.07-.28l.11.8c0-.1,0-.19.01-.29l-.11.8c.01-.06.03-.12.05-.18l-.3.72c.04-.09.08-.16.13-.24l-.47.61s.08-.09.13-.13l-.61.47s.1-.07.16-.09l-.72.3.09-.03c1.49-.49,2.61-2.09,2.1-3.69-.48-1.48-2.1-2.62-3.69-2.1h0Z"/>
    <path class="cls-2" d="M579.26,146.45l-.35-.42.77,2.92c.21-.61,4.58-1.74,5.17-1.9,1.85-.48,3.92-1.52,4.87.48,1.13,2.39-1.31,5.64-2.68,7.58-2.98,4.2-6.66,7.75-9.09,12.34-1.49,2.81,1.43,5.3,4.1,4.1s5.23-1.87,8.06-2.33c3.8-.63,2.19-6.41-1.6-5.79-3.36.55-6.4,1.55-9.49,2.94l4.1,4.1c3.61-6.82,18.41-18.71,11.84-27.61-4.57-6.18-26.05.53-19.95,7.82,2.48,2.96,6.71-1.3,4.24-4.24h0Z"/>
    <path class="cls-2" d="M611.22,141.01c-9.65,1.16-11.84,21.96-.4,21.04,5.04-.41,9.35-5.68,9.8-10.49.49-5.27-3.59-10.03-8.93-10-3.86.02-3.87,6.02,0,6,4.9-.02,2.83,7.35-.63,8.29-2.44.67-2.1-2.6-1.76-4.1.18-.77.91-4.61,1.92-4.73,3.79-.45,3.83-6.46,0-6h0Z"/>
    <path class="cls-2" d="M627.67,144.97c1.68-.99,4.64-3.12,6.64-2.96,4.04.31,1.82,5.17.76,7.22-2.18,4.22-5.57,7.86-8.51,11.57-2.16,2.72.44,6.1,3.64,4.71s6.51-2.25,9.99-2.6c3.8-.39,3.84-6.39,0-6-4.59.47-8.8,1.58-13.02,3.42l3.64,4.71c5.03-6.34,12.98-14.04,11.76-22.94-1.35-9.84-12.35-5.58-17.92-2.3-3.33,1.96-.31,7.14,3.03,5.18h0Z"/>
    <path class="cls-2" d="M647.82,134.05c-.35,3.73-.71,7.46-1.06,11.19-.21,2.24,2.72,3.78,4.51,2.59,2.43-1.61,10.21-7.12,11.79-2.2s-6.31,7.32-9.53,8.37c-3.66,1.19-2.09,6.99,1.6,5.79,7.05-2.3,16.87-7.55,13.51-16.67-3.51-9.55-14.55-4.34-20.4-.46l4.51,2.59c.35-3.73.71-7.46,1.06-11.19s-5.64-3.82-6,0h0Z"/>
    <path class="cls-2" d="M652.03,135.85l6.53-3.32c1.44-.73,1.86-2.76,1.08-4.1-.86-1.47-2.66-1.81-4.1-1.08l-6.53,3.32c-1.44.73-1.86,2.76-1.08,4.1.86,1.47,2.66,1.81,4.1,1.08h0Z"/>
  </g>
  <g>
    <g>
      <path class="cls-2" d="M220.9,88.62c4.45,5.96,10.33,10.29,16.6,12.34,1.09-1.78,2.1-3.68,2.98-5.71,2.45-5.65,6.43-14.81,2.84-22.32-3.75-7.85-15.1-12.47-30.71-12.37-.55,10.25,2.33,20.07,8.29,28.06Z"/>
      <path class="cls-2" d="M206.99,124.25c6.13-2.19,14.51-6.11,21.81-12.79-6.99-3.24-13.36-8.42-18.32-15.06-7.45-9.99-11.21-22.11-10.91-34.76-5.01.76-10.3,1.94-15.79,3.57-.86.43-1.7.89-2.53,1.35-3.69,25.08,13.55,50.05,25.73,57.69Z"/>
      <path class="cls-2" d="M167.83,76.26c-8.85,8.35-13.99,18.47-13.6,28.63.09,2.25.38,9.92,5.79,16.02,8,9.03,21.87,8.65,31.35,7.19-11.31-11.35-22.59-30.76-23.54-51.84Z"/>
    </g>
    <path class="cls-3" d="M182.9,67.21c-13.47-6.56-21.95-20.55-19.1-30.72,4.42-15.78,31.28-20.72,40.13-11.82,6.63,6.67,3.07,21.05,2.58,23.05-1.63,6.57-7.35,13.36-9.47,16.01"/>
    <path class="cls-3" d="M214.8,60.98c12.52-21.21,26.85-34.87,35.16-30.11,6.62,3.79,12.4,16.15,6.73,24.4-4.01,5.83-13.65,9.33-25.69,10.07"/>
    <path class="cls-2" d="M142.44,91.75c.15.07,2.1-.43,2.55-.43,1.76-.02,3.47.61,5.03,1.36,2.51,1.2,4.77,2.93,6.97,4.6,3.08,2.33,6.07-2.87,3.03-5.18-5.22-3.96-12.07-8.53-18.96-6.2-4.69,1.59-7,8.6-1.65,11.03,3.49,1.58,6.54-3.59,3.03-5.18h0Z"/>
    <path class="cls-2" d="M136.96,69.27c.93,1.3,5.76,1,7.27,1.56,2.71,1.01,5.06,2.93,6.95,5.06,3.12,3.52,5.2,7.84,7.29,12.01,1.73,3.45,6.9.42,5.18-3.03-4.02-8.05-8.8-16.68-17.82-19.83-3.42-1.2-8.03-1.77-11.41-.09-2.79,1.38-4.63,4.57-2.64,7.34,2.23,3.11,7.43.12,5.18-3.03h0Z"/>
  </g>
</svg>