<?xml version="1.0" encoding="UTF-8"?>
<svg id="Layer_2" data-name="Layer 2" xmlns="http://www.w3.org/2000/svg" viewBox="0 0 300 300">
  <defs>
    <style>
      .cls-1 {
        fill: none;
        stroke: #633202;
        stroke-miterlimit: 10;
        stroke-width: 5px;
      }

      .cls-2 {
        fill: #633202;
      }
    </style>
  </defs>
  <path class="cls-2" d="M205.83,133.63l-78.22,78.22c-4.52,4.52-1,12.3,5.38,11.79,3.21-.25,6.41-.68,9.59-1.26,2.06-.38,3.95-1.37,5.43-2.85l65.5-65.5c1.48-1.48,2.47-3.37,2.85-5.43.59-3.18,1.01-6.38,1.27-9.59.51-6.38-7.27-9.91-11.79-5.38Z"/>
  <path class="cls-2" d="M97.94,45l-58.91,58.91c-1.33,1.33-2.25,3-2.72,4.82-.89,3.47-1.57,6.98-2.05,10.51-.88,6.53,7.1,10.41,11.76,5.75L119.02,51.99c4.65-4.65.78-12.64-5.75-11.76-3.53.48-7.04,1.16-10.51,2.05-1.82.47-3.49,1.39-4.82,2.72Z"/>
  <path class="cls-2" d="M206.95,88c-1.04-1.93-2.15-3.83-3.34-5.7-2.38-3.75-7.61-4.35-10.75-1.21l-117.77,117.77c-3.14,3.14-2.54,8.37,1.21,10.75,1.87,1.19,3.77,2.3,5.7,3.34,2.71,1.46,6.06,1.01,8.24-1.16l115.55-115.55c2.18-2.18,2.63-5.52,1.16-8.24Z"/>
  <path class="cls-2" d="M172.24,52.01c-1.98-1.16-4-2.25-6.05-3.25-2.63-1.29-5.79-.71-7.86,1.36l-114.21,114.21c-2.07,2.07-2.64,5.22-1.36,7.85,1,2.05,2.08,4.07,3.24,6.06,2.29,3.92,7.67,4.62,10.88,1.41l116.76-116.76c3.21-3.21,2.51-8.58-1.4-10.87Z"/>
  <path class="cls-1" d="M178.72,165.12l83.65,83.65c5.05,5.05,4.49,13.8-1.24,19.54h0c-5.74,5.74-14.49,6.3-19.54,1.24l-83.65-83.65"/>
</svg>